<svg width="393" height="852" viewBox="0 0 393 852" fill="none" xmlns="http://www.w3.org/2000/svg">
<rect width="393" height="852" fill="url(#paint0_linear_10_14)"/>
<path d="M228.555 433.971L191.586 429.938C190.807 429.853 190.218 429.209 190.218 428.443V398.54C190.218 395.777 189.099 393.128 187.108 391.175C185.116 389.221 182.416 388.124 179.599 388.124C176.783 388.124 174.082 389.221 172.091 391.175C170.1 393.128 168.981 395.777 168.981 398.54V458.813C168.981 459.878 167.881 460.605 166.87 460.209L152.889 454.725C151.546 454.198 150.106 453.946 148.66 453.984C147.213 454.023 145.79 454.351 144.478 454.948C143.165 455.546 141.991 456.4 141.027 457.459C140.063 458.517 139.33 459.758 138.873 461.105L138.273 462.876C137.935 463.869 137.91 464.94 138.203 465.947C138.496 466.955 139.092 467.852 139.914 468.521L167.505 491.083C168.455 491.859 169.661 492.286 170.903 492.286H227.382C230.198 492.286 232.899 491.188 234.89 489.235C236.881 487.281 238 484.632 238 481.87V444.319C237.999 441.757 237.035 439.284 235.293 437.375C233.55 435.466 231.151 434.254 228.555 433.971Z" fill="url(#paint1_linear_10_14)"/>
<path d="M190.709 401.397L158.469 413.897L161.772 422.039L190.104 411.054L193.017 418.238L201.322 415.019L195.882 401.608L191.486 403.313L190.709 401.397Z" fill="white"/>
<path fill-rule="evenodd" clip-rule="evenodd" d="M166.118 379.338C170.679 377.569 175.756 377.553 180.335 379.294C184.914 381.035 188.657 384.404 190.815 388.727L199.218 405.56C200.49 406.009 201.627 406.763 202.525 407.752C203.424 408.742 204.056 409.935 204.363 411.224C204.67 412.514 204.642 413.857 204.283 415.132C203.924 416.406 203.244 417.572 202.305 418.522C201.367 419.472 200.2 420.176 198.912 420.569C197.623 420.963 196.254 421.034 194.928 420.776C193.603 420.517 192.365 419.938 191.326 419.09C190.287 418.242 189.482 417.153 188.982 415.923L166.452 424.661C164.679 425.351 162.713 425.404 160.902 424.81C159.091 424.217 157.552 423.014 156.557 421.417C155.562 419.819 155.175 417.929 155.466 416.081C155.756 414.233 156.705 412.547 158.144 411.321L155.217 404.105C154.272 401.774 153.803 399.285 153.839 396.779C153.875 394.273 154.415 391.799 155.427 389.5C156.44 387.2 157.905 385.119 159.739 383.375C161.573 381.632 163.741 380.26 166.118 379.338ZM195.497 410.557C194.833 410.814 194.301 411.32 194.018 411.962C193.736 412.604 193.725 413.331 193.989 413.982C194.253 414.633 194.77 415.155 195.426 415.433C196.083 415.712 196.824 415.723 197.488 415.466C198.152 415.208 198.684 414.703 198.967 414.061C199.25 413.418 199.26 412.692 198.996 412.041C198.732 411.39 198.215 410.868 197.559 410.589C196.903 410.311 196.161 410.299 195.497 410.557ZM185.701 405.833L162.469 414.84C161.831 415.088 161.314 415.566 161.024 416.175C160.735 416.785 160.694 417.48 160.909 418.119C161.125 418.758 161.582 419.293 162.186 419.614C162.79 419.935 163.496 420.018 164.16 419.846L164.46 419.749L188.904 410.272L189.101 409.795L185.701 405.833Z" fill="url(#paint2_linear_10_14)"/>
<path d="M119.945 295.156H116.91V273.805H119.945V295.156ZM113.559 276.055C113.559 278.344 113.25 280.422 112.633 282.289C112.023 284.148 110.988 285.859 109.527 287.422C108.066 288.977 106.109 290.336 103.656 291.5L102.086 289.109C104.141 288.141 105.789 287.051 107.031 285.84C108.273 284.629 109.176 283.27 109.738 281.762C110.301 280.254 110.582 278.527 110.582 276.582V276.055H113.559ZM111.953 278.41H103.223V276.055H111.953V278.41ZM140.688 295.156H137.652V273.805H140.688V295.156ZM134.301 276.055C134.301 278.344 133.992 280.422 133.375 282.289C132.766 284.148 131.73 285.859 130.27 287.422C128.809 288.977 126.852 290.336 124.398 291.5L122.828 289.109C124.883 288.141 126.531 287.051 127.773 285.84C129.016 284.629 129.918 283.27 130.48 281.762C131.043 280.254 131.324 278.527 131.324 276.582V276.055H134.301ZM132.695 278.41H123.965V276.055H132.695V278.41ZM160.328 295.121H157.328V273.805H160.328V295.121ZM163.34 284.469H159.555V282.008H163.34V284.469ZM154.633 276.008C154.633 278.234 154.316 280.289 153.684 282.172C153.051 284.047 152.02 285.773 150.59 287.352C149.16 288.922 147.285 290.281 144.965 291.43L143.277 289.145C145.191 288.176 146.766 287.082 148 285.863C149.242 284.645 150.168 283.27 150.777 281.738C151.395 280.207 151.703 278.477 151.703 276.547V276.008H154.633ZM153.203 278.457H144.473V276.008H153.203V278.457ZM185.863 279.23H179.535V276.828H185.863V279.23ZM185.863 284.387H179.535V281.996H185.863V284.387ZM187.773 289.449H184.797V273.852H187.773V289.449ZM188.289 294.793H173.617V292.379H188.289V294.793ZM176.617 293.609H173.617V287.867H176.617V293.609ZM175.75 275.082C176.789 275.082 177.734 275.324 178.586 275.809C179.445 276.285 180.129 276.945 180.637 277.789C181.145 278.625 181.398 279.57 181.398 280.625C181.398 281.664 181.145 282.602 180.637 283.438C180.129 284.273 179.445 284.934 178.586 285.418C177.727 285.895 176.781 286.133 175.75 286.133C174.68 286.133 173.711 285.895 172.844 285.418C171.984 284.934 171.305 284.273 170.805 283.438C170.312 282.602 170.066 281.664 170.066 280.625C170.066 279.57 170.312 278.621 170.805 277.777C171.305 276.934 171.984 276.273 172.844 275.797C173.711 275.32 174.68 275.082 175.75 275.082ZM175.75 277.742C175.195 277.734 174.703 277.848 174.273 278.082C173.844 278.309 173.508 278.641 173.266 279.078C173.023 279.516 172.902 280.031 172.902 280.625C172.902 281.203 173.023 281.707 173.266 282.137C173.508 282.566 173.844 282.898 174.273 283.133C174.703 283.359 175.195 283.477 175.75 283.484C176.273 283.477 176.746 283.359 177.168 283.133C177.598 282.898 177.934 282.566 178.176 282.137C178.418 281.707 178.539 281.203 178.539 280.625C178.539 280.031 178.418 279.516 178.176 279.078C177.934 278.641 177.598 278.309 177.168 278.082C176.746 277.848 176.273 277.734 175.75 277.742ZM208.516 284.562H205.539V273.805H208.516V284.562ZM201.648 274.648C201.648 276.523 201.277 278.152 200.535 279.535C199.801 280.91 198.707 282.055 197.254 282.969C195.809 283.883 193.996 284.578 191.816 285.055L190.797 282.629C192.555 282.277 193.996 281.793 195.121 281.176C196.254 280.551 197.082 279.824 197.605 278.996C198.129 278.168 198.391 277.254 198.391 276.254V274.648H201.648ZM199.621 277.051H191.992V274.648H199.621V277.051ZM205.891 278.785H200.805V276.512H205.891V278.785ZM205.773 282.922H200.652V280.648H205.773V282.922ZM208.516 291.172H197.359V293.867H194.371V288.957H205.504V287.68H194.336V285.336H208.516V291.172ZM208.984 294.945H194.371V292.578H208.984V294.945ZM223.984 284.891H212.781V282.488H223.984V284.891ZM219.836 288.969H216.848V284.422H219.836V288.969ZM223.879 278.082H215.746V283.285H212.781V275.727H223.879V278.082ZM229.199 295.215H226.234V273.805H229.199V295.215ZM211.375 288.523C213.914 288.539 216.32 288.516 218.594 288.453C220.875 288.391 223.02 288.25 225.027 288.031L225.238 290.211C223.793 290.43 222.305 290.594 220.773 290.703C219.242 290.812 217.785 290.883 216.402 290.914C215.027 290.945 213.469 290.961 211.727 290.961L211.375 288.523ZM239.418 287.445C239.418 288.555 239.246 289.598 238.902 290.574C238.559 291.543 238.023 292.402 237.297 293.152C236.578 293.902 235.68 294.477 234.602 294.875L233.137 292.672C234.043 292.367 234.797 291.945 235.398 291.406C236 290.859 236.441 290.246 236.723 289.566C237.012 288.887 237.156 288.18 237.156 287.445V286.59H239.418V287.445ZM240.051 287.445C240.051 288.18 240.184 288.895 240.449 289.59C240.715 290.277 241.125 290.91 241.68 291.488C242.242 292.059 242.953 292.531 243.812 292.906L242.512 295.062C241.441 294.656 240.562 294.062 239.875 293.281C239.188 292.508 238.684 291.621 238.363 290.621C238.051 289.613 237.895 288.555 237.895 287.445V286.59H240.051V287.445ZM247.164 287.445C247.164 288.484 247.004 289.5 246.684 290.492C246.363 291.484 245.855 292.387 245.16 293.199C244.465 294.012 243.582 294.633 242.512 295.062L241.305 292.906C242.148 292.516 242.844 292.02 243.391 291.418C243.945 290.816 244.352 290.176 244.609 289.496C244.867 288.809 244.996 288.125 244.996 287.445V286.59H247.164V287.445ZM247.949 287.445C247.949 288.219 248.09 288.945 248.371 289.625C248.66 290.305 249.105 290.91 249.707 291.441C250.309 291.973 251.074 292.383 252.004 292.672L250.504 294.875C249.41 294.492 248.504 293.934 247.785 293.199C247.066 292.473 246.539 291.621 246.203 290.645C245.867 289.668 245.699 288.602 245.699 287.445V286.59H247.949V287.445ZM247.668 281.211H242.512V278.785H247.668V281.211ZM237.977 274.918C239.031 274.918 239.984 275.137 240.836 275.574C241.695 276.012 242.371 276.621 242.863 277.402C243.363 278.176 243.613 279.051 243.613 280.027C243.613 280.996 243.363 281.875 242.863 282.664C242.371 283.445 241.695 284.055 240.836 284.492C239.984 284.93 239.031 285.148 237.977 285.148C236.906 285.148 235.938 284.93 235.07 284.492C234.211 284.055 233.531 283.445 233.031 282.664C232.531 281.875 232.281 280.996 232.281 280.027C232.281 279.051 232.531 278.176 233.031 277.402C233.531 276.621 234.211 276.012 235.07 275.574C235.938 275.137 236.906 274.918 237.977 274.918ZM237.977 277.414C237.43 277.406 236.941 277.508 236.512 277.719C236.09 277.922 235.758 278.223 235.516 278.621C235.281 279.012 235.164 279.48 235.164 280.027C235.164 280.551 235.285 281.012 235.527 281.41C235.77 281.809 236.102 282.117 236.523 282.336C236.945 282.555 237.43 282.668 237.977 282.676C238.508 282.668 238.984 282.555 239.406 282.336C239.828 282.117 240.156 281.809 240.391 281.41C240.633 281.012 240.754 280.551 240.754 280.027C240.754 279.48 240.633 279.012 240.391 278.621C240.156 278.223 239.828 277.922 239.406 277.719C238.984 277.508 238.508 277.406 237.977 277.414ZM250 285.781H247.023V273.805H250V285.781ZM258.648 275.316C259.711 275.316 260.66 275.629 261.496 276.254C262.332 276.879 262.984 277.766 263.453 278.914C263.93 280.062 264.168 281.398 264.168 282.922C264.168 284.453 263.93 285.793 263.453 286.941C262.984 288.09 262.332 288.977 261.496 289.602C260.66 290.219 259.711 290.527 258.648 290.527C257.578 290.527 256.621 290.219 255.777 289.602C254.941 288.984 254.285 288.102 253.809 286.953C253.332 285.797 253.094 284.453 253.094 282.922C253.094 281.398 253.332 280.062 253.809 278.914C254.285 277.766 254.941 276.879 255.777 276.254C256.621 275.629 257.578 275.316 258.648 275.316ZM258.648 278.023C258.117 278.016 257.645 278.203 257.23 278.586C256.824 278.969 256.512 279.527 256.293 280.262C256.082 280.996 255.977 281.883 255.977 282.922C255.977 283.961 256.082 284.848 256.293 285.582C256.512 286.316 256.824 286.875 257.23 287.258C257.645 287.633 258.117 287.82 258.648 287.82C259.188 287.82 259.66 287.633 260.066 287.258C260.473 286.875 260.785 286.316 261.004 285.582C261.223 284.848 261.332 283.961 261.332 282.922C261.332 281.875 261.219 280.984 260.992 280.25C260.773 279.516 260.465 278.961 260.066 278.586C259.668 278.203 259.195 278.016 258.648 278.023ZM270.766 295.215H267.801V273.805H270.766V295.215ZM269.078 283.93H263.277V281.527H269.078V283.93ZM280.832 290.668H277.867V284.68H280.832V290.668ZM288.684 290.668H285.672V284.68H288.684V290.668ZM293.02 292.66H273.52V290.211H293.02V292.66ZM283.234 274.859C284.773 274.859 286.148 275.098 287.359 275.574C288.578 276.051 289.531 276.723 290.219 277.59C290.914 278.457 291.262 279.453 291.262 280.578C291.262 281.711 290.918 282.711 290.23 283.578C289.543 284.438 288.59 285.105 287.371 285.582C286.16 286.051 284.781 286.289 283.234 286.297C281.695 286.289 280.316 286.051 279.098 285.582C277.887 285.105 276.938 284.438 276.25 283.578C275.562 282.711 275.219 281.711 275.219 280.578C275.219 279.453 275.562 278.457 276.25 277.59C276.938 276.723 277.891 276.051 279.109 275.574C280.328 275.098 281.703 274.859 283.234 274.859ZM283.234 277.227C282.219 277.219 281.332 277.348 280.574 277.613C279.816 277.879 279.227 278.266 278.805 278.773C278.383 279.273 278.172 279.875 278.172 280.578C278.172 281.273 278.383 281.879 278.805 282.395C279.227 282.902 279.816 283.297 280.574 283.578C281.34 283.852 282.227 283.988 283.234 283.988C284.234 283.988 285.117 283.852 285.883 283.578C286.648 283.297 287.242 282.902 287.664 282.395C288.094 281.879 288.309 281.273 288.309 280.578C288.309 279.875 288.098 279.273 287.676 278.773C287.254 278.273 286.66 277.891 285.895 277.625C285.137 277.352 284.25 277.219 283.234 277.227ZM134.266 325.543H131.289V309.805H134.266V325.543ZM128.195 313.742H116.828V311.352H128.195V313.742ZM116.277 320.516C118.715 320.508 120.93 320.473 122.922 320.41C124.914 320.348 126.777 320.223 128.512 320.035L128.641 322.215C126.859 322.504 124.945 322.699 122.898 322.801C120.859 322.902 118.762 322.953 116.605 322.953L116.277 320.516ZM121.445 320.844H118.551V313.449H121.445V320.844ZM126.438 320.844H123.578V313.449H126.438V320.844ZM132.883 315.98H128.582V313.578H132.883V315.98ZM132.883 320.27H128.582V317.82H132.883V320.27ZM134.77 330.793H120.074V328.379H134.77V330.793ZM123.098 330.195H120.074V324.359H123.098V330.195ZM153.953 325.367H150.965V309.84H153.953V325.367ZM156.836 318.43H153.086V315.969H156.836V318.43ZM154.715 330.793H140.113V328.379H154.715V330.793ZM143.102 329.457H140.113V323.738H143.102V329.457ZM143.02 311.199C144.105 311.199 145.094 311.43 145.984 311.891C146.875 312.352 147.574 312.996 148.082 313.824C148.598 314.645 148.855 315.574 148.855 316.613C148.855 317.645 148.598 318.574 148.082 319.402C147.574 320.223 146.875 320.867 145.984 321.336C145.094 321.805 144.105 322.039 143.02 322.039C141.949 322.039 140.965 321.805 140.066 321.336C139.176 320.867 138.469 320.219 137.945 319.391C137.43 318.562 137.172 317.637 137.172 316.613C137.172 315.574 137.43 314.645 137.945 313.824C138.469 312.996 139.172 312.352 140.055 311.891C140.945 311.43 141.934 311.199 143.02 311.199ZM143.02 313.801C142.488 313.793 142 313.902 141.555 314.129C141.109 314.355 140.758 314.684 140.5 315.113C140.242 315.543 140.113 316.043 140.113 316.613C140.113 317.184 140.242 317.68 140.5 318.102C140.758 318.523 141.109 318.852 141.555 319.086C142 319.312 142.488 319.426 143.02 319.426C143.582 319.426 144.082 319.312 144.52 319.086C144.965 318.859 145.312 318.535 145.562 318.113C145.812 317.684 145.938 317.184 145.938 316.613C145.938 316.035 145.812 315.535 145.562 315.113C145.312 314.684 144.965 314.355 144.52 314.129C144.082 313.902 143.582 313.793 143.02 313.801ZM174.695 325.777H171.707V309.852H174.695V325.777ZM177.578 318.828H173.828V316.379H177.578V318.828ZM170.43 314.434H157.762V312.078H170.43V314.434ZM164.113 315.184C165.129 315.184 166.035 315.359 166.832 315.711C167.629 316.055 168.25 316.539 168.695 317.164C169.141 317.789 169.363 318.508 169.363 319.32C169.363 320.125 169.141 320.836 168.695 321.453C168.25 322.062 167.629 322.539 166.832 322.883C166.035 323.227 165.129 323.398 164.113 323.398C163.082 323.398 162.164 323.227 161.359 322.883C160.555 322.539 159.93 322.062 159.484 321.453C159.039 320.836 158.816 320.125 158.816 319.32C158.816 318.508 159.039 317.789 159.484 317.164C159.93 316.539 160.555 316.055 161.359 315.711C162.164 315.359 163.082 315.184 164.113 315.184ZM164.113 317.48C163.637 317.48 163.215 317.551 162.848 317.691C162.488 317.832 162.211 318.043 162.016 318.324C161.82 318.605 161.723 318.938 161.723 319.32C161.723 319.703 161.82 320.031 162.016 320.305C162.211 320.57 162.488 320.773 162.848 320.914C163.215 321.055 163.637 321.125 164.113 321.125C164.59 321.125 165.008 321.055 165.367 320.914C165.734 320.773 166.02 320.57 166.223 320.305C166.426 320.031 166.527 319.703 166.527 319.32C166.527 318.938 166.426 318.605 166.223 318.324C166.02 318.043 165.734 317.832 165.367 317.691C165.008 317.551 164.59 317.48 164.113 317.48ZM165.602 313.238H162.613V309.816H165.602V313.238ZM175.457 330.793H160.855V328.379H175.457V330.793ZM163.844 329.41H160.855V324.547H163.844V329.41ZM200.992 330.922H187.047V323H200.992V330.922ZM190.012 328.52H198.039V325.367H190.012V328.52ZM200.992 322.016H198.004V309.805H200.992V322.016ZM203.875 317.035H200.148V314.562H203.875V317.035ZM187.668 313.637H192.039V310.941H195.039V321.008H184.703V310.941H187.668V313.637ZM192.039 318.605V315.945H187.668V318.605H192.039ZM223.07 320.891H211.867V318.488H223.07V320.891ZM218.922 324.969H215.934V320.422H218.922V324.969ZM222.965 314.082H214.832V319.285H211.867V311.727H222.965V314.082ZM228.285 331.215H225.32V309.805H228.285V331.215ZM210.461 324.523C213 324.539 215.406 324.516 217.68 324.453C219.961 324.391 222.105 324.25 224.113 324.031L224.324 326.211C222.879 326.43 221.391 326.594 219.859 326.703C218.328 326.812 216.871 326.883 215.488 326.914C214.113 326.945 212.555 326.961 210.812 326.961L210.461 324.523ZM243.215 319.473H239.582V317.023H243.215V319.473ZM237.344 315.336C237.344 317 237.172 318.582 236.828 320.082C236.492 321.582 235.965 322.922 235.246 324.102C234.535 325.281 233.633 326.207 232.539 326.879L230.711 324.652C231.719 324.027 232.547 323.223 233.195 322.238C233.844 321.246 234.312 320.168 234.602 319.004C234.898 317.84 235.047 316.617 235.047 315.336V311.656H237.344V315.336ZM237.941 315.195C237.941 316.453 238.066 317.633 238.316 318.734C238.566 319.828 238.98 320.844 239.559 321.781C240.145 322.719 240.898 323.488 241.82 324.09L240.203 326.387C239.117 325.73 238.242 324.824 237.578 323.668C236.914 322.512 236.434 321.227 236.137 319.812C235.848 318.398 235.703 316.859 235.703 315.195V311.656H237.941V315.195ZM249.602 331.156H246.73V309.805H249.602V331.156ZM245.137 330.172H242.336V310.133H245.137V330.172ZM259.176 326.668H256.211V320.68H259.176V326.668ZM267.027 326.668H264.016V320.68H267.027V326.668ZM271.363 328.66H251.863V326.211H271.363V328.66ZM261.578 310.859C263.117 310.859 264.492 311.098 265.703 311.574C266.922 312.051 267.875 312.723 268.562 313.59C269.258 314.457 269.605 315.453 269.605 316.578C269.605 317.711 269.262 318.711 268.574 319.578C267.887 320.438 266.934 321.105 265.715 321.582C264.504 322.051 263.125 322.289 261.578 322.297C260.039 322.289 258.66 322.051 257.441 321.582C256.23 321.105 255.281 320.438 254.594 319.578C253.906 318.711 253.562 317.711 253.562 316.578C253.562 315.453 253.906 314.457 254.594 313.59C255.281 312.723 256.234 312.051 257.453 311.574C258.672 311.098 260.047 310.859 261.578 310.859ZM261.578 313.227C260.562 313.219 259.676 313.348 258.918 313.613C258.16 313.879 257.57 314.266 257.148 314.773C256.727 315.273 256.516 315.875 256.516 316.578C256.516 317.273 256.727 317.879 257.148 318.395C257.57 318.902 258.16 319.297 258.918 319.578C259.684 319.852 260.57 319.988 261.578 319.988C262.578 319.988 263.461 319.852 264.227 319.578C264.992 319.297 265.586 318.902 266.008 318.395C266.438 317.879 266.652 317.273 266.652 316.578C266.652 315.875 266.441 315.273 266.02 314.773C265.598 314.273 265.004 313.891 264.238 313.625C263.48 313.352 262.594 313.219 261.578 313.227ZM277.129 323.926H274.141L273.824 312.031H277.457L277.129 323.926ZM275.641 329.211C275.289 329.211 274.961 329.121 274.656 328.941C274.352 328.754 274.109 328.512 273.93 328.215C273.758 327.91 273.672 327.582 273.672 327.23C273.672 326.887 273.758 326.566 273.93 326.27C274.109 325.965 274.352 325.727 274.656 325.555C274.961 325.383 275.289 325.297 275.641 325.297C275.984 325.297 276.305 325.383 276.602 325.555C276.906 325.727 277.148 325.965 277.328 326.27C277.516 326.566 277.609 326.887 277.609 327.23C277.609 327.582 277.516 327.91 277.328 328.215C277.148 328.512 276.906 328.754 276.602 328.941C276.305 329.121 275.984 329.211 275.641 329.211Z" fill="white"/>
<path opacity="0.5" d="M99.9999 68C100.003 68.3518 99.8958 68.6957 99.6941 68.9839C99.4924 69.2721 99.206 69.4903 98.8746 69.6081L92.0754 72.0814L89.604 78.8816C89.4822 79.2099 89.2628 79.493 88.9754 79.6929C88.6881 79.8928 88.3464 80 87.9963 80C87.6463 80 87.3046 79.8928 87.0172 79.6929C86.7299 79.493 86.5105 79.2099 86.3887 78.8816L83.9162 72.0739L77.1181 69.6081C76.7899 69.4863 76.5069 69.2669 76.307 68.9794C76.1071 68.6919 76 68.3502 76 68C76 67.6498 76.1071 67.3081 76.307 67.0206C76.5069 66.7331 76.7899 66.5137 77.1181 66.3919L83.9237 63.9186L86.3887 57.1184C86.5105 56.7901 86.7299 56.507 87.0172 56.3071C87.3046 56.1072 87.6463 56 87.9963 56C88.3464 56 88.6881 56.1072 88.9754 56.3071C89.2628 56.507 89.4822 56.7901 89.604 57.1184L92.0765 63.9261L98.8746 66.3919C99.206 66.5097 99.4924 66.7279 99.6941 67.0161C99.8958 67.3043 100.003 67.6482 99.9999 68Z" fill="#FFF7E2"/>
<path opacity="0.5" d="M188 188C188.003 188.352 187.896 188.696 187.694 188.984C187.492 189.272 187.206 189.49 186.875 189.608L180.075 192.081L177.604 198.882C177.482 199.21 177.263 199.493 176.975 199.693C176.688 199.893 176.346 200 175.996 200C175.646 200 175.305 199.893 175.017 199.693C174.73 199.493 174.511 199.21 174.389 198.882L171.916 192.074L165.118 189.608C164.79 189.486 164.507 189.267 164.307 188.979C164.107 188.692 164 188.35 164 188C164 187.65 164.107 187.308 164.307 187.021C164.507 186.733 164.79 186.514 165.118 186.392L171.924 183.919L174.389 177.118C174.511 176.79 174.73 176.507 175.017 176.307C175.305 176.107 175.646 176 175.996 176C176.346 176 176.688 176.107 176.975 176.307C177.263 176.507 177.482 176.79 177.604 177.118L180.076 183.926L186.875 186.392C187.206 186.51 187.492 186.728 187.694 187.016C187.896 187.304 188.003 187.648 188 188Z" fill="#FFF7E2"/>
<path opacity="0.8" d="M106 127C106.001 127.176 105.948 127.348 105.847 127.492C105.746 127.636 105.603 127.745 105.437 127.804L102.038 129.041L100.802 132.441C100.741 132.605 100.631 132.746 100.488 132.846C100.344 132.946 100.173 133 99.9982 133C99.8231 133 99.6523 132.946 99.5086 132.846C99.3649 132.746 99.2553 132.605 99.1944 132.441L97.9581 129.037L94.559 127.804C94.395 127.743 94.2534 127.633 94.1535 127.49C94.0536 127.346 94 127.175 94 127C94 126.825 94.0536 126.654 94.1535 126.51C94.2534 126.367 94.395 126.257 94.559 126.196L97.9618 124.959L99.1944 121.559C99.2553 121.395 99.3649 121.254 99.5086 121.154C99.6523 121.054 99.8231 121 99.9982 121C100.173 121 100.344 121.054 100.488 121.154C100.631 121.254 100.741 121.395 100.802 121.559L102.038 124.963L105.437 126.196C105.603 126.255 105.746 126.364 105.847 126.508C105.948 126.652 106.001 126.824 106 127Z" fill="#FFF7E2"/>
<path opacity="0.4" d="M63 247C63.0013 247.176 62.9479 247.348 62.847 247.492C62.7462 247.636 62.603 247.745 62.4373 247.804L59.0377 249.041L57.802 252.441C57.7411 252.605 57.6314 252.746 57.4877 252.846C57.344 252.946 57.1732 253 56.9982 253C56.8231 253 56.6523 252.946 56.5086 252.846C56.3649 252.746 56.2553 252.605 56.1944 252.441L54.9581 249.037L51.559 247.804C51.395 247.743 51.2534 247.633 51.1535 247.49C51.0536 247.346 51 247.175 51 247C51 246.825 51.0536 246.654 51.1535 246.51C51.2534 246.367 51.395 246.257 51.559 246.196L54.9618 244.959L56.1944 241.559C56.2553 241.395 56.3649 241.254 56.5086 241.154C56.6523 241.054 56.8231 241 56.9982 241C57.1732 241 57.344 241.054 57.4877 241.154C57.6314 241.254 57.7411 241.395 57.802 241.559L59.0382 244.963L62.4373 246.196C62.603 246.255 62.7462 246.364 62.847 246.508C62.9479 246.652 63.0013 246.824 63 247Z" fill="#FFF7E2"/>
<path opacity="0.4" d="M69 426C69.0013 426.176 68.9479 426.348 68.847 426.492C68.7462 426.636 68.603 426.745 68.4373 426.804L65.0377 428.041L63.802 431.441C63.7411 431.605 63.6314 431.746 63.4877 431.846C63.344 431.946 63.1732 432 62.9982 432C62.8231 432 62.6523 431.946 62.5086 431.846C62.3649 431.746 62.2553 431.605 62.1944 431.441L60.9581 428.037L57.559 426.804C57.395 426.743 57.2534 426.633 57.1535 426.49C57.0536 426.346 57 426.175 57 426C57 425.825 57.0536 425.654 57.1535 425.51C57.2534 425.367 57.395 425.257 57.559 425.196L60.9618 423.959L62.1944 420.559C62.2553 420.395 62.3649 420.254 62.5086 420.154C62.6523 420.054 62.8231 420 62.9982 420C63.1732 420 63.344 420.054 63.4877 420.154C63.6314 420.254 63.7411 420.395 63.802 420.559L65.0382 423.963L68.4373 425.196C68.603 425.255 68.7462 425.364 68.847 425.508C68.9479 425.652 69.0013 425.824 69 426Z" fill="#FFF7E2"/>
<path opacity="0.5" d="M336 164C336.001 164.176 335.948 164.348 335.847 164.492C335.746 164.636 335.603 164.745 335.437 164.804L332.038 166.041L330.802 169.441C330.741 169.605 330.631 169.746 330.488 169.846C330.344 169.946 330.173 170 329.998 170C329.823 170 329.652 169.946 329.509 169.846C329.365 169.746 329.255 169.605 329.194 169.441L327.958 166.037L324.559 164.804C324.395 164.743 324.253 164.633 324.153 164.49C324.054 164.346 324 164.175 324 164C324 163.825 324.054 163.654 324.153 163.51C324.253 163.367 324.395 163.257 324.559 163.196L327.962 161.959L329.194 158.559C329.255 158.395 329.365 158.254 329.509 158.154C329.652 158.054 329.823 158 329.998 158C330.173 158 330.344 158.054 330.488 158.154C330.631 158.254 330.741 158.395 330.802 158.559L332.038 161.963L335.437 163.196C335.603 163.255 335.746 163.364 335.847 163.508C335.948 163.652 336.001 163.824 336 164Z" fill="#FFF7E2"/>
<path opacity="0.2" d="M342 356C342.001 356.176 341.948 356.348 341.847 356.492C341.746 356.636 341.603 356.745 341.437 356.804L338.038 358.041L336.802 361.441C336.741 361.605 336.631 361.746 336.488 361.846C336.344 361.946 336.173 362 335.998 362C335.823 362 335.652 361.946 335.509 361.846C335.365 361.746 335.255 361.605 335.194 361.441L333.958 358.037L330.559 356.804C330.395 356.743 330.253 356.633 330.153 356.49C330.054 356.346 330 356.175 330 356C330 355.825 330.054 355.654 330.153 355.51C330.253 355.367 330.395 355.257 330.559 355.196L333.962 353.959L335.194 350.559C335.255 350.395 335.365 350.254 335.509 350.154C335.652 350.054 335.823 350 335.998 350C336.173 350 336.344 350.054 336.488 350.154C336.631 350.254 336.741 350.395 336.802 350.559L338.038 353.963L341.437 355.196C341.603 355.255 341.746 355.364 341.847 355.508C341.948 355.652 342.001 355.824 342 356Z" fill="#FFF7E2"/>
<defs>
<linearGradient id="paint0_linear_10_14" x1="196.5" y1="0" x2="196.5" y2="852" gradientUnits="userSpaceOnUse">
<stop/>
<stop offset="1" stop-color="#38424F"/>
</linearGradient>
<linearGradient id="paint1_linear_10_14" x1="188" y1="378" x2="188" y2="492.286" gradientUnits="userSpaceOnUse">
<stop stop-color="#55B3E7"/>
<stop offset="1" stop-color="#7355E7"/>
</linearGradient>
<linearGradient id="paint2_linear_10_14" x1="188" y1="378" x2="188" y2="492.286" gradientUnits="userSpaceOnUse">
<stop stop-color="#55B3E7"/>
<stop offset="1" stop-color="#7355E7"/>
</linearGradient>
</defs>
</svg>
