<svg width="393" height="852" viewBox="0 0 393 852" fill="none" xmlns="http://www.w3.org/2000/svg">
<rect width="393" height="852" fill="white"/>
<path d="M239.555 480.971L202.586 476.938C201.807 476.853 201.218 476.209 201.218 475.443V445.54C201.218 442.777 200.099 440.128 198.108 438.175C196.116 436.221 193.416 435.124 190.599 435.124C187.783 435.124 185.082 436.221 183.091 438.175C181.1 440.128 179.981 442.777 179.981 445.54V505.813C179.981 506.878 178.881 507.605 177.87 507.209L163.889 501.725C162.546 501.198 161.106 500.946 159.66 500.984C158.213 501.023 156.79 501.351 155.478 501.948C154.165 502.546 152.991 503.4 152.027 504.459C151.063 505.517 150.33 506.758 149.873 508.105L149.273 509.876C148.935 510.869 148.91 511.94 149.203 512.947C149.496 513.955 150.092 514.852 150.914 515.521L178.505 538.083C179.455 538.859 180.661 539.286 181.903 539.286H238.382C241.198 539.286 243.899 538.188 245.89 536.235C247.881 534.281 249 531.632 249 528.87V491.319C248.999 488.757 248.035 486.284 246.293 484.375C244.55 482.466 242.151 481.254 239.555 480.971Z" fill="url(#paint0_linear_4_59)"/>
<path d="M201.709 448.397L169.469 460.897L172.772 469.039L201.104 458.054L204.017 465.238L212.322 462.019L206.882 448.608L202.486 450.313L201.709 448.397Z" fill="white"/>
<path fill-rule="evenodd" clip-rule="evenodd" d="M177.118 426.338C181.679 424.569 186.756 424.553 191.335 426.294C195.914 428.035 199.657 431.404 201.815 435.727L210.218 452.56C211.49 453.009 212.627 453.763 213.525 454.752C214.424 455.742 215.056 456.935 215.363 458.224C215.67 459.514 215.642 460.857 215.283 462.132C214.924 463.406 214.244 464.572 213.305 465.522C212.367 466.472 211.2 467.176 209.912 467.569C208.623 467.963 207.254 468.034 205.928 467.776C204.603 467.517 203.365 466.938 202.326 466.09C201.287 465.242 200.482 464.153 199.982 462.923L177.452 471.661C175.679 472.351 173.713 472.404 171.902 471.81C170.091 471.217 168.552 470.014 167.557 468.417C166.562 466.819 166.175 464.929 166.466 463.081C166.756 461.233 167.705 459.547 169.144 458.321L166.217 451.105C165.272 448.774 164.803 446.285 164.839 443.779C164.875 441.273 165.415 438.799 166.427 436.5C167.44 434.2 168.905 432.119 170.739 430.375C172.573 428.632 174.741 427.26 177.118 426.338ZM206.497 457.557C205.833 457.814 205.301 458.32 205.018 458.962C204.736 459.604 204.725 460.331 204.989 460.982C205.253 461.633 205.77 462.155 206.426 462.433C207.083 462.712 207.824 462.723 208.488 462.466C209.152 462.208 209.684 461.703 209.967 461.061C210.25 460.418 210.26 459.692 209.996 459.041C209.732 458.39 209.215 457.868 208.559 457.589C207.903 457.311 207.161 457.299 206.497 457.557ZM196.701 452.833L173.469 461.84C172.831 462.088 172.314 462.566 172.024 463.175C171.735 463.785 171.694 464.48 171.909 465.119C172.125 465.758 172.582 466.293 173.186 466.614C173.79 466.935 174.496 467.018 175.16 466.846L175.46 466.749L199.904 457.272L200.101 456.795L196.701 452.833Z" fill="url(#paint1_linear_4_59)"/>
<path d="M126.586 336.543H123.609V320.805H126.586V336.543ZM120.516 324.742H109.148V322.352H120.516V324.742ZM108.598 331.516C111.035 331.508 113.25 331.473 115.242 331.41C117.234 331.348 119.098 331.223 120.832 331.035L120.961 333.215C119.18 333.504 117.266 333.699 115.219 333.801C113.18 333.902 111.082 333.953 108.926 333.953L108.598 331.516ZM113.766 331.844H110.871V324.449H113.766V331.844ZM118.758 331.844H115.898V324.449H118.758V331.844ZM125.203 326.98H120.902V324.578H125.203V326.98ZM125.203 331.27H120.902V328.82H125.203V331.27ZM127.09 341.793H112.395V339.379H127.09V341.793ZM115.418 341.195H112.395V335.359H115.418V341.195ZM146.273 336.367H143.285V320.84H146.273V336.367ZM149.156 329.43H145.406V326.969H149.156V329.43ZM147.035 341.793H132.434V339.379H147.035V341.793ZM135.422 340.457H132.434V334.738H135.422V340.457ZM135.34 322.199C136.426 322.199 137.414 322.43 138.305 322.891C139.195 323.352 139.895 323.996 140.402 324.824C140.918 325.645 141.176 326.574 141.176 327.613C141.176 328.645 140.918 329.574 140.402 330.402C139.895 331.223 139.195 331.867 138.305 332.336C137.414 332.805 136.426 333.039 135.34 333.039C134.27 333.039 133.285 332.805 132.387 332.336C131.496 331.867 130.789 331.219 130.266 330.391C129.75 329.562 129.492 328.637 129.492 327.613C129.492 326.574 129.75 325.645 130.266 324.824C130.789 323.996 131.492 323.352 132.375 322.891C133.266 322.43 134.254 322.199 135.34 322.199ZM135.34 324.801C134.809 324.793 134.32 324.902 133.875 325.129C133.43 325.355 133.078 325.684 132.82 326.113C132.562 326.543 132.434 327.043 132.434 327.613C132.434 328.184 132.562 328.68 132.82 329.102C133.078 329.523 133.43 329.852 133.875 330.086C134.32 330.312 134.809 330.426 135.34 330.426C135.902 330.426 136.402 330.312 136.84 330.086C137.285 329.859 137.633 329.535 137.883 329.113C138.133 328.684 138.258 328.184 138.258 327.613C138.258 327.035 138.133 326.535 137.883 326.113C137.633 325.684 137.285 325.355 136.84 325.129C136.402 324.902 135.902 324.793 135.34 324.801ZM167.016 336.777H164.027V320.852H167.016V336.777ZM169.898 329.828H166.148V327.379H169.898V329.828ZM162.75 325.434H150.082V323.078H162.75V325.434ZM156.434 326.184C157.449 326.184 158.355 326.359 159.152 326.711C159.949 327.055 160.57 327.539 161.016 328.164C161.461 328.789 161.684 329.508 161.684 330.32C161.684 331.125 161.461 331.836 161.016 332.453C160.57 333.062 159.949 333.539 159.152 333.883C158.355 334.227 157.449 334.398 156.434 334.398C155.402 334.398 154.484 334.227 153.68 333.883C152.875 333.539 152.25 333.062 151.805 332.453C151.359 331.836 151.137 331.125 151.137 330.32C151.137 329.508 151.359 328.789 151.805 328.164C152.25 327.539 152.875 327.055 153.68 326.711C154.484 326.359 155.402 326.184 156.434 326.184ZM156.434 328.48C155.957 328.48 155.535 328.551 155.168 328.691C154.809 328.832 154.531 329.043 154.336 329.324C154.141 329.605 154.043 329.938 154.043 330.32C154.043 330.703 154.141 331.031 154.336 331.305C154.531 331.57 154.809 331.773 155.168 331.914C155.535 332.055 155.957 332.125 156.434 332.125C156.91 332.125 157.328 332.055 157.688 331.914C158.055 331.773 158.34 331.57 158.543 331.305C158.746 331.031 158.848 330.703 158.848 330.32C158.848 329.938 158.746 329.605 158.543 329.324C158.34 329.043 158.055 328.832 157.688 328.691C157.328 328.551 156.91 328.48 156.434 328.48ZM157.922 324.238H154.934V320.816H157.922V324.238ZM167.777 341.793H153.176V339.379H167.777V341.793ZM156.164 340.41H153.176V335.547H156.164V340.41ZM187.184 322.492C187.184 323.852 186.828 325.117 186.117 326.289C185.406 327.453 184.379 328.43 183.035 329.219C181.699 330.008 180.129 330.535 178.324 330.801L177.152 328.398C178.699 328.211 180.035 327.812 181.16 327.203C182.285 326.586 183.133 325.867 183.703 325.047C184.273 324.219 184.559 323.367 184.559 322.492V321.449H187.184V322.492ZM187.699 322.492C187.699 323.367 187.988 324.219 188.566 325.047C189.152 325.875 190.008 326.594 191.133 327.203C192.266 327.812 193.605 328.211 195.152 328.398L193.992 330.801C192.18 330.535 190.602 330.008 189.258 329.219C187.914 328.43 186.883 327.453 186.164 326.289C185.445 325.125 185.086 323.859 185.086 322.492V321.449H187.699V322.492ZM187.547 342.156H184.582V334.316H187.547V342.156ZM195.855 334.867H176.402V332.418H195.855V334.867ZM212.953 326.594H207.527V324.168H212.953V326.594ZM213.047 331.152H207.527V328.785H213.047V331.152ZM208.16 332.945H198.023V322.562H208.16V332.945ZM200.988 330.625H205.219V324.93H200.988V330.625ZM215.109 336.367H212.133V320.852H215.109V336.367ZM215.566 341.793H200.906V339.379H215.566V341.793ZM203.93 340.621H200.906V334.902H203.93V340.621ZM227.602 321.133C229.242 321.133 230.641 321.273 231.797 321.555C232.953 321.828 233.832 322.238 234.434 322.785C235.043 323.324 235.348 323.98 235.348 324.754C235.348 325.535 235.043 326.203 234.434 326.758C233.832 327.305 232.953 327.719 231.797 328C230.641 328.281 229.242 328.422 227.602 328.422C225.961 328.422 224.559 328.281 223.395 328C222.238 327.719 221.352 327.305 220.734 326.758C220.125 326.203 219.82 325.535 219.82 324.754C219.82 323.98 220.125 323.324 220.734 322.785C221.352 322.238 222.238 321.828 223.395 321.555C224.559 321.273 225.961 321.133 227.602 321.133ZM227.602 323.312C226.562 323.312 225.699 323.367 225.012 323.477C224.324 323.578 223.809 323.738 223.465 323.957C223.129 324.176 222.961 324.441 222.961 324.754C222.961 325.105 223.125 325.391 223.453 325.609C223.789 325.82 224.293 325.977 224.965 326.078C225.637 326.18 226.516 326.23 227.602 326.23C228.703 326.23 229.59 326.18 230.262 326.078C230.934 325.977 231.434 325.82 231.762 325.609C232.098 325.391 232.266 325.105 232.266 324.754C232.266 324.441 232.094 324.18 231.75 323.969C231.414 323.75 230.902 323.586 230.215 323.477C229.527 323.367 228.656 323.312 227.602 323.312ZM237.34 331.809H217.887V329.441H237.34V331.809ZM234.961 338.477H223.078V340.398H220.137V336.391H232.008V335.219H220.125V333.027H234.961V338.477ZM235.523 342.004H220.137V339.766H235.523V342.004ZM251.133 321.707C252.203 321.699 253.168 321.887 254.027 322.27C254.887 322.652 255.555 323.188 256.031 323.875C256.516 324.562 256.758 325.352 256.758 326.242C256.758 327.117 256.516 327.898 256.031 328.586C255.555 329.273 254.887 329.812 254.027 330.203C253.168 330.586 252.203 330.777 251.133 330.777C250.055 330.777 249.09 330.586 248.238 330.203C247.395 329.812 246.73 329.273 246.246 328.586C245.762 327.898 245.52 327.117 245.52 326.242C245.52 325.352 245.762 324.562 246.246 323.875C246.73 323.188 247.395 322.652 248.238 322.27C249.09 321.887 250.055 321.699 251.133 321.707ZM251.133 324.109C250.594 324.102 250.121 324.184 249.715 324.355C249.309 324.52 248.988 324.762 248.754 325.082C248.527 325.402 248.414 325.789 248.414 326.242C248.414 326.68 248.527 327.055 248.754 327.367C248.988 327.68 249.309 327.922 249.715 328.094C250.129 328.258 250.602 328.34 251.133 328.34C251.688 328.34 252.172 328.258 252.586 328.094C253.008 327.922 253.336 327.68 253.57 327.367C253.805 327.055 253.922 326.68 253.922 326.242C253.922 325.789 253.805 325.402 253.57 325.082C253.336 324.762 253.012 324.52 252.598 324.355C252.184 324.184 251.695 324.102 251.133 324.109ZM252.762 341.535H249.762V332.922H252.762V341.535ZM262.148 342.145H259.172V320.852H262.148V342.145ZM244.219 332.066C246.734 332.066 249.137 332.016 251.426 331.914C253.723 331.812 255.883 331.609 257.906 331.305L258.094 333.496C256.203 333.871 254.258 334.125 252.258 334.258C250.266 334.383 248.039 334.461 245.578 334.492C245.312 334.508 244.984 334.516 244.594 334.516L244.219 332.066ZM275.203 326.453H264.879V324.074H275.203V326.453ZM270.082 327.414C270.988 327.414 271.797 327.629 272.508 328.059C273.219 328.488 273.773 329.086 274.172 329.852C274.57 330.617 274.77 331.492 274.77 332.477C274.77 333.461 274.57 334.34 274.172 335.113C273.773 335.879 273.219 336.48 272.508 336.918C271.797 337.355 270.988 337.574 270.082 337.574C269.184 337.574 268.379 337.355 267.668 336.918C266.957 336.48 266.398 335.875 265.992 335.102C265.594 334.328 265.395 333.453 265.395 332.477C265.395 331.508 265.594 330.637 265.992 329.863C266.398 329.09 266.957 328.488 267.668 328.059C268.379 327.629 269.184 327.414 270.082 327.414ZM270.082 329.898C269.684 329.891 269.324 329.992 269.004 330.203C268.691 330.406 268.449 330.703 268.277 331.094C268.113 331.484 268.031 331.945 268.031 332.477C268.031 333 268.117 333.457 268.289 333.848C268.461 334.23 268.703 334.523 269.016 334.727C269.328 334.93 269.684 335.031 270.082 335.031C270.488 335.031 270.844 334.93 271.148 334.727C271.461 334.523 271.707 334.23 271.887 333.848C272.066 333.457 272.156 333 272.156 332.477C272.156 331.945 272.066 331.484 271.887 331.094C271.707 330.703 271.461 330.406 271.148 330.203C270.844 329.992 270.488 329.891 270.082 329.898ZM283.359 342.156H280.512V320.805H283.359V342.156ZM281.461 331.891H277.875V329.512H281.461V331.891ZM278.789 341.242H275.988V321.25H278.789V341.242ZM271.547 325.574H268.605V321.414H271.547V325.574ZM118.945 378.156H115.91V356.805H118.945V378.156ZM112.559 359.055C112.559 361.344 112.25 363.422 111.633 365.289C111.023 367.148 109.988 368.859 108.527 370.422C107.066 371.977 105.109 373.336 102.656 374.5L101.086 372.109C103.141 371.141 104.789 370.051 106.031 368.84C107.273 367.629 108.176 366.27 108.738 364.762C109.301 363.254 109.582 361.527 109.582 359.582V359.055H112.559ZM110.953 361.41H102.223V359.055H110.953V361.41ZM139.688 378.156H136.652V356.805H139.688V378.156ZM133.301 359.055C133.301 361.344 132.992 363.422 132.375 365.289C131.766 367.148 130.73 368.859 129.27 370.422C127.809 371.977 125.852 373.336 123.398 374.5L121.828 372.109C123.883 371.141 125.531 370.051 126.773 368.84C128.016 367.629 128.918 366.27 129.48 364.762C130.043 363.254 130.324 361.527 130.324 359.582V359.055H133.301ZM131.695 361.41H122.965V359.055H131.695V361.41ZM161.988 368.605H142.488V366.379H161.988V368.605ZM159.668 374.699H147.703V376.574H144.715V372.812H156.703V371.746H144.703V369.66H159.668V374.699ZM160.277 377.957H144.715V375.918H160.277V377.957ZM159.633 362.219H147.891V364H144.914V360.32H156.633V359.242H144.879V357.203H159.633V362.219ZM159.996 365.383H144.914V363.367H159.996V365.383ZM184.863 362.23H178.535V359.828H184.863V362.23ZM184.863 367.387H178.535V364.996H184.863V367.387ZM186.773 372.449H183.797V356.852H186.773V372.449ZM187.289 377.793H172.617V375.379H187.289V377.793ZM175.617 376.609H172.617V370.867H175.617V376.609ZM174.75 358.082C175.789 358.082 176.734 358.324 177.586 358.809C178.445 359.285 179.129 359.945 179.637 360.789C180.145 361.625 180.398 362.57 180.398 363.625C180.398 364.664 180.145 365.602 179.637 366.438C179.129 367.273 178.445 367.934 177.586 368.418C176.727 368.895 175.781 369.133 174.75 369.133C173.68 369.133 172.711 368.895 171.844 368.418C170.984 367.934 170.305 367.273 169.805 366.438C169.312 365.602 169.066 364.664 169.066 363.625C169.066 362.57 169.312 361.621 169.805 360.777C170.305 359.934 170.984 359.273 171.844 358.797C172.711 358.32 173.68 358.082 174.75 358.082ZM174.75 360.742C174.195 360.734 173.703 360.848 173.273 361.082C172.844 361.309 172.508 361.641 172.266 362.078C172.023 362.516 171.902 363.031 171.902 363.625C171.902 364.203 172.023 364.707 172.266 365.137C172.508 365.566 172.844 365.898 173.273 366.133C173.703 366.359 174.195 366.477 174.75 366.484C175.273 366.477 175.746 366.359 176.168 366.133C176.598 365.898 176.934 365.566 177.176 365.137C177.418 364.707 177.539 364.203 177.539 363.625C177.539 363.031 177.418 362.516 177.176 362.078C176.934 361.641 176.598 361.309 176.168 361.082C175.746 360.848 175.273 360.734 174.75 360.742ZM207.516 367.562H204.539V356.805H207.516V367.562ZM200.648 357.648C200.648 359.523 200.277 361.152 199.535 362.535C198.801 363.91 197.707 365.055 196.254 365.969C194.809 366.883 192.996 367.578 190.816 368.055L189.797 365.629C191.555 365.277 192.996 364.793 194.121 364.176C195.254 363.551 196.082 362.824 196.605 361.996C197.129 361.168 197.391 360.254 197.391 359.254V357.648H200.648ZM198.621 360.051H190.992V357.648H198.621V360.051ZM204.891 361.785H199.805V359.512H204.891V361.785ZM204.773 365.922H199.652V363.648H204.773V365.922ZM207.516 374.172H196.359V376.867H193.371V371.957H204.504V370.68H193.336V368.336H207.516V374.172ZM207.984 377.945H193.371V375.578H207.984V377.945ZM220.57 362.453H210.246V360.074H220.57V362.453ZM215.449 363.414C216.355 363.414 217.164 363.629 217.875 364.059C218.586 364.488 219.141 365.086 219.539 365.852C219.938 366.617 220.137 367.492 220.137 368.477C220.137 369.461 219.938 370.34 219.539 371.113C219.141 371.879 218.586 372.48 217.875 372.918C217.164 373.355 216.355 373.574 215.449 373.574C214.551 373.574 213.746 373.355 213.035 372.918C212.324 372.48 211.766 371.875 211.359 371.102C210.961 370.328 210.762 369.453 210.762 368.477C210.762 367.508 210.961 366.637 211.359 365.863C211.766 365.09 212.324 364.488 213.035 364.059C213.746 363.629 214.551 363.414 215.449 363.414ZM215.449 365.898C215.051 365.891 214.691 365.992 214.371 366.203C214.059 366.406 213.816 366.703 213.645 367.094C213.48 367.484 213.398 367.945 213.398 368.477C213.398 369 213.484 369.457 213.656 369.848C213.828 370.23 214.07 370.523 214.383 370.727C214.695 370.93 215.051 371.031 215.449 371.031C215.855 371.031 216.211 370.93 216.516 370.727C216.828 370.523 217.074 370.23 217.254 369.848C217.434 369.457 217.523 369 217.523 368.477C217.523 367.945 217.434 367.484 217.254 367.094C217.074 366.703 216.828 366.406 216.516 366.203C216.211 365.992 215.855 365.891 215.449 365.898ZM228.727 378.156H225.879V356.805H228.727V378.156ZM226.828 367.891H223.242V365.512H226.828V367.891ZM224.156 377.242H221.355V357.25H224.156V377.242ZM216.914 361.574H213.973V357.414H216.914V361.574ZM241.629 359.84C241.629 361.098 241.285 362.25 240.598 363.297C239.918 364.344 238.938 365.223 237.656 365.934C236.375 366.637 234.852 367.109 233.086 367.352L231.973 365.02C233.465 364.832 234.742 364.473 235.805 363.941C236.875 363.41 237.68 362.785 238.219 362.066C238.758 361.348 239.027 360.605 239.027 359.84V359.195H241.629V359.84ZM242.484 359.84C242.484 360.605 242.75 361.348 243.281 362.066C243.82 362.785 244.625 363.41 245.695 363.941C246.766 364.473 248.055 364.832 249.562 365.02L248.484 367.352C246.711 367.109 245.176 366.637 243.879 365.934C242.59 365.23 241.602 364.355 240.914 363.309C240.227 362.254 239.883 361.098 239.883 359.84V359.195H242.484V359.84ZM242.18 378.168H239.215V370.305H242.18V378.168ZM250.488 370.984H231.035V368.605H250.488V370.984ZM248.73 360.285H232.781V357.953H248.73V360.285ZM263.871 366.473H260.238V364.023H263.871V366.473ZM258 362.336C258 364 257.828 365.582 257.484 367.082C257.148 368.582 256.621 369.922 255.902 371.102C255.191 372.281 254.289 373.207 253.195 373.879L251.367 371.652C252.375 371.027 253.203 370.223 253.852 369.238C254.5 368.246 254.969 367.168 255.258 366.004C255.555 364.84 255.703 363.617 255.703 362.336V358.656H258V362.336ZM258.598 362.195C258.598 363.453 258.723 364.633 258.973 365.734C259.223 366.828 259.637 367.844 260.215 368.781C260.801 369.719 261.555 370.488 262.477 371.09L260.859 373.387C259.773 372.73 258.898 371.824 258.234 370.668C257.57 369.512 257.09 368.227 256.793 366.812C256.504 365.398 256.359 363.859 256.359 362.195V358.656H258.598V362.195ZM270.258 378.156H267.387V356.805H270.258V378.156ZM265.793 377.172H262.992V357.133H265.793V377.172ZM279.832 373.668H276.867V367.68H279.832V373.668ZM287.684 373.668H284.672V367.68H287.684V373.668ZM292.02 375.66H272.52V373.211H292.02V375.66ZM282.234 357.859C283.773 357.859 285.148 358.098 286.359 358.574C287.578 359.051 288.531 359.723 289.219 360.59C289.914 361.457 290.262 362.453 290.262 363.578C290.262 364.711 289.918 365.711 289.23 366.578C288.543 367.438 287.59 368.105 286.371 368.582C285.16 369.051 283.781 369.289 282.234 369.297C280.695 369.289 279.316 369.051 278.098 368.582C276.887 368.105 275.938 367.438 275.25 366.578C274.562 365.711 274.219 364.711 274.219 363.578C274.219 362.453 274.562 361.457 275.25 360.59C275.938 359.723 276.891 359.051 278.109 358.574C279.328 358.098 280.703 357.859 282.234 357.859ZM282.234 360.227C281.219 360.219 280.332 360.348 279.574 360.613C278.816 360.879 278.227 361.266 277.805 361.773C277.383 362.273 277.172 362.875 277.172 363.578C277.172 364.273 277.383 364.879 277.805 365.395C278.227 365.902 278.816 366.297 279.574 366.578C280.34 366.852 281.227 366.988 282.234 366.988C283.234 366.988 284.117 366.852 284.883 366.578C285.648 366.297 286.242 365.902 286.664 365.395C287.094 364.879 287.309 364.273 287.309 363.578C287.309 362.875 287.098 362.273 286.676 361.773C286.254 361.273 285.66 360.891 284.895 360.625C284.137 360.352 283.25 360.219 282.234 360.227Z" fill="black"/>
<defs>
<linearGradient id="paint0_linear_4_59" x1="199" y1="425" x2="199" y2="539.286" gradientUnits="userSpaceOnUse">
<stop stop-color="#55B3E7"/>
<stop offset="1" stop-color="#7355E7"/>
</linearGradient>
<linearGradient id="paint1_linear_4_59" x1="199" y1="425" x2="199" y2="539.286" gradientUnits="userSpaceOnUse">
<stop stop-color="#55B3E7"/>
<stop offset="1" stop-color="#7355E7"/>
</linearGradient>
</defs>
</svg>
