<svg width="393" height="852" viewBox="0 0 393 852" fill="none" xmlns="http://www.w3.org/2000/svg">
<g clip-path="url(#clip0_4_129)">
<rect width="393" height="852" fill="white"/>
<g opacity="0.2">
<path d="M438.867 565.828L273.096 613.338C269.604 614.339 265.946 612.608 264.603 609.319L212.171 480.954C207.327 469.095 197.88 459.683 185.906 454.789C173.933 449.895 160.415 449.92 148.326 454.858C136.237 459.796 126.567 469.242 121.444 481.119C116.321 492.996 116.164 506.331 121.008 518.19L226.691 776.926C228.558 781.497 225.11 786.55 220.075 786.621L150.444 787.593C143.753 787.687 137.133 789.128 130.991 791.829C124.849 794.53 119.315 798.433 114.728 803.3C110.141 808.166 106.598 813.892 104.317 820.127C102.036 826.362 101.065 832.973 101.463 839.556L101.993 848.209C102.282 853.068 104.055 857.707 107.078 861.518C110.101 865.33 114.234 868.135 118.934 869.568L276.937 918.039C282.377 919.704 288.299 919.424 293.632 917.246L536.08 818.216C548.169 813.278 557.839 803.832 562.962 791.955C568.085 780.078 568.242 766.743 563.398 754.884L497.557 593.69C493.06 582.691 484.587 573.769 473.759 568.628C462.932 563.488 450.509 562.491 438.867 565.828Z" fill="url(#paint0_linear_4_129)"/>
<path d="M219.29 492.358L102.81 602.545L131.263 631.706L233.624 534.875L258.729 560.605L288.732 532.224L241.869 484.194L225.985 499.219L219.29 492.358Z" fill="white"/>
<path fill-rule="evenodd" clip-rule="evenodd" d="M75.0508 440.783C91.5263 425.192 113.295 416.221 136.003 415.665C158.711 415.109 180.685 423.008 197.529 437.783L263.119 495.309C269.363 495.006 275.565 496.247 281.158 498.919C286.751 501.591 291.555 505.608 295.134 510.603C298.712 515.599 300.949 521.414 301.642 527.516C302.334 533.618 301.459 539.814 299.097 545.537C296.734 551.26 292.96 556.328 288.118 560.277C283.277 564.227 277.523 566.932 271.381 568.146C265.24 569.359 258.907 569.043 252.962 567.226C247.017 565.408 241.648 562.148 237.347 557.742L155.952 634.756C149.553 640.827 141.206 644.501 132.39 645.128C123.574 645.754 114.858 643.292 107.785 638.178C100.712 633.064 95.7392 625.628 93.7468 617.187C91.7544 608.746 92.8713 599.845 96.8996 592.059L71.6814 566.213C63.5354 557.867 57.1607 548.001 52.9213 537.18C48.682 526.36 46.6611 514.795 46.974 503.148C47.2869 491.5 49.9274 479.998 54.7449 469.297C59.5623 458.596 66.4623 448.907 75.0508 440.783ZM255.904 523.282C253.505 525.551 252.109 528.654 252.021 531.907C251.933 535.16 253.162 538.298 255.437 540.629C257.712 542.961 260.847 544.295 264.152 544.34C267.456 544.384 270.661 543.134 273.06 540.864C275.458 538.595 276.855 535.493 276.943 532.239C277.031 528.986 275.802 525.848 273.527 523.517C271.252 521.185 268.117 519.851 264.812 519.807C261.507 519.762 258.303 521.013 255.904 523.282ZM205.569 520.181L121.633 599.582C119.33 601.766 117.95 604.721 117.774 607.845C117.599 610.969 118.641 614.026 120.689 616.39C122.736 618.755 125.634 620.249 128.79 620.568C131.946 620.886 135.123 620.005 137.67 618.104L138.788 617.165L227.102 533.622L227.114 531.228L205.569 520.181Z" fill="url(#paint1_linear_4_129)"/>
</g>
<path d="M38.1895 110.525H32.916V108.523H38.1895V110.525ZM38.1895 114.822H32.916V112.83H38.1895V114.822ZM39.7812 119.041H37.3008V106.043H39.7812V119.041ZM40.2109 123.494H27.9844V121.482H40.2109V123.494ZM30.4844 122.508H27.9844V117.723H30.4844V122.508ZM29.7617 107.068C30.6276 107.068 31.4154 107.27 32.125 107.674C32.8411 108.071 33.4108 108.621 33.834 109.324C34.2572 110.021 34.4688 110.809 34.4688 111.688C34.4688 112.553 34.2572 113.335 33.834 114.031C33.4108 114.728 32.8411 115.278 32.125 115.682C31.4089 116.079 30.6211 116.277 29.7617 116.277C28.8698 116.277 28.0625 116.079 27.3398 115.682C26.6237 115.278 26.0573 114.728 25.6406 114.031C25.2305 113.335 25.0254 112.553 25.0254 111.688C25.0254 110.809 25.2305 110.018 25.6406 109.314C26.0573 108.611 26.6237 108.061 27.3398 107.664C28.0625 107.267 28.8698 107.068 29.7617 107.068ZM29.7617 109.285C29.2995 109.279 28.8893 109.373 28.5312 109.568C28.1732 109.757 27.8932 110.034 27.6914 110.398C27.4896 110.763 27.3887 111.193 27.3887 111.688C27.3887 112.169 27.4896 112.589 27.6914 112.947C27.8932 113.305 28.1732 113.582 28.5312 113.777C28.8893 113.966 29.2995 114.064 29.7617 114.07C30.1979 114.064 30.5918 113.966 30.9434 113.777C31.3014 113.582 31.5814 113.305 31.7832 112.947C31.985 112.589 32.0859 112.169 32.0859 111.688C32.0859 111.193 31.985 110.763 31.7832 110.398C31.5814 110.034 31.3014 109.757 30.9434 109.568C30.5918 109.373 30.1979 109.279 29.7617 109.285ZM57.0664 114.969H54.5859V106.004H57.0664V114.969ZM51.3438 106.707C51.3438 108.27 51.0345 109.627 50.416 110.779C49.804 111.925 48.8926 112.879 47.6816 113.641C46.4772 114.402 44.9668 114.982 43.1504 115.379L42.3008 113.357C43.7656 113.064 44.9668 112.661 45.9043 112.146C46.8483 111.626 47.5384 111.02 47.9746 110.33C48.4108 109.64 48.6289 108.878 48.6289 108.045V106.707H51.3438ZM49.6543 108.709H43.2969V106.707H49.6543V108.709ZM54.8789 110.154H50.6406V108.26H54.8789V110.154ZM54.7812 113.602H50.5137V111.707H54.7812V113.602ZM57.0664 120.477H47.7695V122.723H45.2793V118.631H54.5566V117.566H45.25V115.613H57.0664V120.477ZM57.457 123.621H45.2793V121.648H57.457V123.621ZM78.0234 123.768H75.5234V106.004H78.0234V123.768ZM80.5332 114.891H77.3789V112.84H80.5332V114.891ZM73.2773 107.84C73.2773 109.695 73.0137 111.408 72.4863 112.977C71.959 114.539 71.0996 115.978 69.9082 117.293C68.7168 118.602 67.1543 119.734 65.2207 120.691L63.8145 118.787C65.4095 117.98 66.7214 117.068 67.75 116.053C68.7852 115.037 69.5566 113.891 70.0645 112.615C70.5788 111.339 70.8359 109.897 70.8359 108.289V107.84H73.2773ZM72.0859 109.881H64.8105V107.84H72.0859V109.881ZM95.6992 112.469H83.3457V110.467H95.6992V112.469ZM85.8262 111.385H83.3457V106.297H85.8262V111.385ZM97.5352 116.014H81.2949V113.992H97.5352V116.014ZM89.3711 117.146C90.6602 117.146 91.7669 117.277 92.6914 117.537C93.6224 117.791 94.332 118.165 94.8203 118.66C95.3151 119.148 95.5625 119.741 95.5625 120.438C95.5625 121.128 95.3151 121.72 94.8203 122.215C94.332 122.71 93.6257 123.087 92.7012 123.348C91.7767 123.608 90.6667 123.738 89.3711 123.738C88.0755 123.738 86.9622 123.608 86.0312 123.348C85.1003 123.087 84.3841 122.71 83.8828 122.215C83.388 121.72 83.1406 121.128 83.1406 120.438C83.1406 119.741 83.388 119.148 83.8828 118.66C84.3841 118.165 85.1003 117.791 86.0312 117.537C86.9688 117.277 88.082 117.146 89.3711 117.146ZM89.3711 119.08C88.5378 119.08 87.8477 119.129 87.3008 119.227C86.7539 119.318 86.347 119.464 86.0801 119.666C85.8132 119.868 85.6797 120.125 85.6797 120.438C85.6797 120.743 85.8164 121.001 86.0898 121.209C86.3633 121.417 86.7734 121.574 87.3203 121.678C87.8672 121.782 88.5508 121.834 89.3711 121.834C90.1784 121.834 90.8555 121.782 91.4023 121.678C91.9557 121.574 92.3691 121.417 92.6426 121.209C92.916 121.001 93.0527 120.743 93.0527 120.438C93.0527 120.125 92.916 119.868 92.6426 119.666C92.3691 119.464 91.9622 119.318 91.4219 119.227C90.8815 119.129 90.1979 119.08 89.3711 119.08ZM112.672 119.314H110.182V106.043H112.672V119.314ZM115.074 113.523H111.949V111.482H115.074V113.523ZM109.117 109.861H98.5605V107.898H109.117V109.861ZM103.854 110.486C104.7 110.486 105.455 110.633 106.119 110.926C106.783 111.212 107.301 111.616 107.672 112.137C108.043 112.658 108.229 113.257 108.229 113.934C108.229 114.604 108.043 115.197 107.672 115.711C107.301 116.219 106.783 116.616 106.119 116.902C105.455 117.189 104.7 117.332 103.854 117.332C102.994 117.332 102.229 117.189 101.559 116.902C100.888 116.616 100.367 116.219 99.9961 115.711C99.625 115.197 99.4395 114.604 99.4395 113.934C99.4395 113.257 99.625 112.658 99.9961 112.137C100.367 111.616 100.888 111.212 101.559 110.926C102.229 110.633 102.994 110.486 103.854 110.486ZM103.854 112.4C103.456 112.4 103.105 112.459 102.799 112.576C102.499 112.693 102.268 112.869 102.105 113.104C101.943 113.338 101.861 113.615 101.861 113.934C101.861 114.253 101.943 114.526 102.105 114.754C102.268 114.975 102.499 115.145 102.799 115.262C103.105 115.379 103.456 115.438 103.854 115.438C104.251 115.438 104.599 115.379 104.898 115.262C105.204 115.145 105.442 114.975 105.611 114.754C105.781 114.526 105.865 114.253 105.865 113.934C105.865 113.615 105.781 113.338 105.611 113.104C105.442 112.869 105.204 112.693 104.898 112.576C104.599 112.459 104.251 112.4 103.854 112.4ZM105.094 108.865H102.604V106.014H105.094V108.865ZM113.307 123.494H101.139V121.482H113.307V123.494ZM103.629 122.342H101.139V118.289H103.629V122.342ZM135.426 123.797H132.896V106.004H135.426V123.797ZM130.104 107.879C130.104 109.786 129.846 111.518 129.332 113.074C128.824 114.624 127.962 116.049 126.744 117.352C125.527 118.647 123.896 119.78 121.852 120.75L120.543 118.758C122.255 117.951 123.629 117.042 124.664 116.033C125.699 115.024 126.451 113.891 126.92 112.635C127.389 111.378 127.623 109.939 127.623 108.318V107.879H130.104ZM128.766 109.842H121.49V107.879H128.766V109.842ZM152.711 123.797H150.182V106.004H152.711V123.797ZM147.389 107.879C147.389 109.786 147.132 111.518 146.617 113.074C146.109 114.624 145.247 116.049 144.029 117.352C142.812 118.647 141.181 119.78 139.137 120.75L137.828 118.758C139.54 117.951 140.914 117.042 141.949 116.033C142.984 115.024 143.736 113.891 144.205 112.635C144.674 111.378 144.908 109.939 144.908 108.318V107.879H147.389ZM146.051 109.842H138.775V107.879H146.051V109.842ZM173.854 112.986H161.695V106.727H173.854V112.986ZM164.137 111.033H171.402V108.67H164.137V111.033ZM175.904 116.688H159.693V114.686H175.904V116.688ZM169.02 115.301H166.51V112.557H169.02V115.301ZM173.922 123.797H171.441V119.949H161.48V117.996H173.922V123.797ZM193.209 117.547H176.959V115.555H193.209V117.547ZM191.246 111.18H181.461V113.113H178.98V109.383H188.746V108.289H178.951V106.355H191.246V111.18ZM191.578 114.275H178.98V112.361H191.578V114.275ZM186.314 116.648H183.844V113.26H186.314V116.648ZM191.344 123.729H188.834V120.506H178.766V118.553H191.344V123.729Z" fill="black"/>
</g>
<defs>
<linearGradient id="paint0_linear_4_129" x1="166.637" y1="396.67" x2="367.025" y2="887.268" gradientUnits="userSpaceOnUse">
<stop stop-color="#55B3E7"/>
<stop offset="1" stop-color="#7355E7"/>
</linearGradient>
<linearGradient id="paint1_linear_4_129" x1="166.637" y1="396.67" x2="367.025" y2="887.268" gradientUnits="userSpaceOnUse">
<stop stop-color="#55B3E7"/>
<stop offset="1" stop-color="#7355E7"/>
</linearGradient>
<clipPath id="clip0_4_129">
<rect width="393" height="852" fill="white"/>
</clipPath>
</defs>
</svg>
